<svg xmlns="http://www.w3.org/2000/svg" viewBox="0 96 960 960" fill="currentColor">
<path d="M70.456 675q-7.088 0-12.272-5.162Q53 664.675 53 657V493q0-5.725 5.412-11.363Q63.825 476 70.912 476 78 476 83 481.637q5 5.638 5 11.363v164q0 7.675-5.228 12.838Q77.544 675 70.456 675zm112 84q-7.088 0-12.272-5.162Q165 748.675 165 741V410q0-6.7 5.412-11.85 5.413-5.15 12.5-5.15Q190 393 195 398.15q5 5.15 5 11.85v331q0 7.675-5.228 12.838Q189.544 759 182.456 759zm707-84q-7.088 0-12.272-5.162Q872 664.675 872 657V493q0-5.725 5.412-11.363 5.413-5.637 12.5-5.637Q897 476 902 481.637q5 5.638 5 11.363v164q0 7.675-5.228 12.838Q896.544 675 889.456 675zm-112 84q-7.088 0-12.272-5.162Q760 748.675 760 741V410q0-6.7 5.412-11.85 5.413-5.15 12.5-5.15Q785 393 790 398.15q5 5.15 5 11.85v331q0 7.675-5.228 12.838Q784.544 759 777.456 759zM311 900q-14.133 0-24.067-9.667Q277 880.667 277 867V285q0-14.667 9.933-23.833Q296.867 252 311 252h338q14.133 0 24.067 9.167Q683 270.333 683 285v582q0 13.667-9.933 23.333Q663.133 900 649 900H311zm1-35h336V287H312v578zm0-578v578-578z"/>
</svg>
