<svg xmlns="http://www.w3.org/2000/svg" viewBox="0 96 960 960" fill="currentColor">
<path d="M343 738h282q11 0 16-10t-1-19l-75-100q-5.154-7-13.885-7-8.73 0-14.115 7l-90 112-51-60q-6-7-15-6.5t-13 6.5l-38 48q-7 9.438-2.125 19.219T343 738zM186 856q-27.5 0-47.25-19.75T119 789V363q0-27.5 19.75-47.25T186 296h588q27.475 0 47.237 19.75Q841 335.5 841 363v426q0 27.5-19.763 47.25Q801.475 856 774 856H186zm0-35q-14 0-23-9t-9-23V363q0-14 9-23t23-9q-14 0-23 9t-9 23v426q0 14 9 23t23 9zm0 0h588q14 0 23-9t9-23V363q0-14-9-23t-23-9H186q-14 0-23 9t-9 23v426q0 14 9 23t23 9z"/>
</svg>
