<svg xmlns="http://www.w3.org/2000/svg" viewBox="0 96 960 960" fill="currentColor">
<path d="M223 900q-27.5 0-47.25-19.75T156 833V319q0-27.5 19.75-47.25T223 252h514q27.5 0 47.25 19.75T804 319v514q0 27.5-19.75 47.25T737 900H223Zm0-35h514q14 0 23-9t9-23V372H191v461q0 14 9 23t23 9Zm72-316q-7.675 0-12.838-5.211-5.162-5.21-5.162-12 0-6.789 5.162-12.289Q287.325 514 295 514h368q6.7 0 11.85 5.503 5.15 5.503 5.15 12.725 0 6.797-5.15 11.785Q669.7 549 663 549H295Zm0 173q-7.675 0-12.838-5.211-5.162-5.21-5.162-12 0-6.789 5.162-12.289Q287.325 687 295 687h208q6.7 0 11.85 5.503 5.15 5.503 5.15 12.725 0 6.797-5.15 11.785Q509.7 722 503 722H295Z"/>
</svg>
