<svg xmlns="http://www.w3.org/2000/svg" viewBox="0 96 960 960" fill="currentColor">
<path d="M223 737q-27.75 0-47.375-19.237Q156 698.525 156 670V482q0-28.525 19.625-47.763Q195.25 415 223 415h514q27.75 0 47.375 19.237Q804 453.475 804 482v188q0 28.525-19.625 47.763Q764.75 737 737 737H223zm0-35h514q14 0 23-9t9-23V482q0-14-9-23t-23-9H223q-14 0-23 9t-9 23v188q0 14 9 23t23 9zm-50-390q-7 0-12-5.184t-5-12.5Q156 287 161.137 282q5.138-5 12.863-5h614q5.949 0 10.974 5Q804 287 804 294.316q0 7.316-5.125 12.5T787 312H173zm0 563q-7 0-12-5.184t-5-12.5Q156 850 161.137 845q5.138-5 12.863-5h614q5.949 0 10.974 5Q804 850 804 857.316q0 7.316-5.125 12.5T787 875H173zm18-425h32q-14 0-23 9t-9 23v188q0 14 9 23t23 9h-32V450z"/>
</svg>
