<svg width="275" height="78" viewBox="0 0 275 78" fill="none" xmlns="http://www.w3.org/2000/svg">
<path d="M59.95 36.7613C54.8014 24.9592 41.0514 19.5684 28.9514 24.0608C22.5653 26.4364 18.6542 30.076 16.6069 35.7562C15.018 40.1724 15.5222 43.9186 15.3694 44.2384C15.1708 44.6496 14.4833 42.3805 13.5819 40.477C13.2917 39.8831 12.4361 39.9288 12.2069 40.5531C9.9611 46.7663 9.89999 51.7308 12.6805 58.0506C17.4167 68.8323 29.3028 74.3602 41.2958 72.213C42.9917 71.9085 43.5875 69.7917 42.3194 68.6343C40.6542 67.0963 39.0958 64.8729 37.9347 62.208C35.3069 56.1623 36.3917 51.746 39.6 50.3755C42.8083 48.9897 46.918 51.1673 49.5458 57.213C50.5236 59.4668 51.0736 61.7206 51.2111 63.7308C51.3333 65.543 53.5333 66.3805 54.8014 65.0709C61.8903 57.7917 64.2736 46.675 59.95 36.7613Z" fill="#EC8E1E"/>
<path d="M59.95 36.7613C58.3458 33.076 55.9014 30.0304 52.9375 27.7004C52.8917 27.6547 52.8305 27.6243 52.7847 27.5786C52.5708 27.4111 52.3569 27.2588 52.143 27.0913C52.0514 27.0304 51.9597 26.9542 51.868 26.8933C51.6542 26.741 51.425 26.5887 51.1958 26.4364C51.15 26.406 51.0889 26.3603 51.043 26.3298C50.7833 26.1623 50.5083 25.9948 50.2333 25.8425C50.1417 25.7816 50.0347 25.7359 49.943 25.675C49.7291 25.5532 49.5 25.4314 49.2861 25.3095C49.2097 25.2639 49.1333 25.2334 49.0569 25.1877C48.7819 25.0507 48.4916 24.8984 48.2014 24.7765C48.1097 24.7309 48.018 24.6852 47.9264 24.6547C47.6972 24.5481 47.468 24.4567 47.2542 24.3654C47.1625 24.3349 47.0708 24.2892 46.9944 24.2588C46.7042 24.1369 46.3986 24.0303 46.093 23.9238C46.0014 23.8933 45.925 23.8628 45.8333 23.8324C45.5889 23.7562 45.3597 23.6649 45.1153 23.604C45.0236 23.5735 44.9167 23.543 44.825 23.5126C44.5194 23.4212 44.1986 23.3298 43.893 23.2537C43.8319 23.2385 43.7555 23.2232 43.6944 23.208C43.4347 23.1471 43.175 23.0862 42.9 23.0253C42.8083 23.01 42.7014 22.9796 42.6097 22.9644C42.2889 22.9034 41.968 22.8425 41.6319 22.7816C41.6014 22.7816 41.5708 22.7664 41.5403 22.7664C41.2347 22.7207 40.9292 22.675 40.6236 22.6446C40.5319 22.6293 40.425 22.6293 40.3333 22.6141C40.043 22.5836 39.7528 22.5532 39.4625 22.538C39.4167 22.538 39.3708 22.5227 39.3097 22.5227C38.9736 22.5075 38.6375 22.4923 38.3167 22.4771C38.225 22.4771 38.1333 22.4771 38.0417 22.4771C37.7667 22.4771 37.4917 22.4771 37.2014 22.4771C37.125 22.4771 37.0639 22.4771 36.9875 22.4771C36.6514 22.4923 36.3153 22.5075 35.9791 22.5227C35.8875 22.5227 35.8111 22.538 35.7194 22.538C35.4444 22.5532 35.1694 22.5836 34.8944 22.6141C34.818 22.6293 34.7264 22.6293 34.65 22.6446C34.3139 22.6902 33.9778 22.7359 33.6264 22.7968C33.55 22.8121 33.4889 22.8273 33.4125 22.8273C33.1222 22.873 32.8472 22.9339 32.5569 22.9948C32.4653 23.01 32.3736 23.0253 32.2972 23.0557C31.9611 23.1319 31.625 23.208 31.2736 23.2994C31.2278 23.3146 31.1819 23.3298 31.1361 23.3451C30.8305 23.4212 30.5403 23.5126 30.2347 23.604C30.1583 23.6344 30.0667 23.6496 29.9903 23.6801C29.975 23.6801 29.975 23.6801 29.9597 23.6953C29.6236 23.8019 29.2875 23.9238 28.9667 24.0456C27.9736 24.4111 27.0417 24.8222 26.1555 25.2639C25.6361 25.5227 25.1167 25.7968 24.6278 26.0862C23.9861 26.4669 23.375 26.8781 22.7944 27.3045C21.9236 27.9441 21.1444 28.6446 20.4264 29.406C19.9528 29.9085 19.5097 30.4415 19.0972 31.005C18.8986 31.2791 18.7 31.5684 18.5014 31.873C18.1194 32.4669 17.7833 33.076 17.4625 33.7309C17.1417 34.3857 16.8667 35.0557 16.6069 35.7715C15.018 40.1877 15.5222 43.9339 15.3694 44.2537C15.1708 44.6649 14.4833 42.3958 13.5819 40.4923C13.2917 39.8984 12.4361 39.9441 12.2069 40.5684C9.99165 46.8121 9.9611 51.8375 12.6805 58.0659C17.3861 68.8628 29.3028 74.3755 41.2958 72.2283C41.3875 72.2131 41.4791 72.1826 41.5708 72.1522C41.6014 72.137 41.6319 72.1369 41.6625 72.1217C41.6778 72.1217 41.6778 72.1217 41.693 72.1065C41.7083 72.1065 41.7236 72.0913 41.7389 72.0913C41.7694 72.076 41.8 72.0608 41.8305 72.0456C41.8611 72.0303 41.9069 72.0151 41.9375 71.9999C41.9833 71.9694 42.0139 71.9542 42.0597 71.9237C42.075 71.9237 42.075 71.9085 42.0903 71.9085C42.0903 71.9085 42.1055 71.9085 42.1055 71.8933C42.1208 71.8781 42.1514 71.8628 42.1667 71.8476C42.1972 71.8324 42.2125 71.8171 42.2278 71.7867C42.2889 71.741 42.35 71.6801 42.3958 71.6344L42.4111 71.6192C42.4417 71.5887 42.4569 71.5735 42.4875 71.543C42.4875 71.543 42.4875 71.543 42.5028 71.5278C42.5486 71.4821 42.5944 71.4212 42.625 71.3603L42.6403 71.3451C42.6403 71.3298 42.6555 71.3298 42.6555 71.3146C42.6861 71.2689 42.7167 71.2232 42.7472 71.1623C43.175 70.3704 43.0833 69.3197 42.3194 68.6192C41.8917 68.2232 41.4639 67.7816 41.0514 67.2943C40.8986 67.1116 40.7305 66.9136 40.5778 66.7156C40.5014 66.6243 40.4403 66.5177 40.3639 66.4263C40.2569 66.2892 40.1653 66.1522 40.0583 66.0151C39.9819 65.9237 39.9208 65.8172 39.8597 65.7106C39.7375 65.5278 39.6153 65.3451 39.493 65.1471C39.4472 65.0862 39.4167 65.0253 39.3708 64.9644C39.218 64.7207 39.0653 64.4618 38.9278 64.2029C38.8819 64.1116 38.8361 64.0354 38.7903 63.9441C38.6833 63.7461 38.5764 63.5481 38.4694 63.3349C38.4236 63.2435 38.3778 63.1674 38.3319 63.076C38.1944 62.7867 38.0569 62.4973 37.9347 62.208C37.7819 61.873 37.6597 61.538 37.5375 61.2182C37.4916 61.1116 37.4611 61.0202 37.4305 60.9136C37.3542 60.6852 37.2778 60.4567 37.2014 60.2283C37.1708 60.1217 37.1403 60.0151 37.1097 59.9237C37.018 59.6344 36.9417 59.3451 36.8805 59.0557C36.85 58.9491 36.8347 58.8425 36.8042 58.7207C36.7583 58.538 36.7278 58.3704 36.6972 58.1877C36.6667 58.0507 36.6514 57.8984 36.6208 57.7613C36.6055 57.6243 36.5903 57.5024 36.575 57.3654C36.5597 57.2131 36.5444 57.076 36.5292 56.939C36.2542 53.6344 37.4458 51.3045 39.6153 50.3603C40.4555 49.9948 41.7236 49.5836 43.7097 50.4212C46.9333 43.9187 51.7764 38.6496 59.5222 37.5227C59.7667 37.4923 60.0111 37.4618 60.2555 37.4314C60.1486 37.2334 60.0569 37.005 59.95 36.7613Z" fill="#ED7921"/>
<path d="M26.0639 49.2791C24.5361 38.8933 28.6 28.9796 35.9792 22.5532C33.6264 22.7207 31.2583 23.208 28.9667 24.0608C22.5806 26.4365 18.6695 30.0761 16.6222 35.7563C15.0333 40.1725 15.5375 43.9187 15.3847 44.2385C15.1861 44.6497 14.4986 42.3806 13.5972 40.4771C13.307 39.8832 12.4361 39.9289 12.2222 40.5532C10.0375 46.9339 9.91529 51.7918 12.6958 58.0507C17.4778 68.8172 29.3181 74.3603 41.3111 72.2131C41.7542 72.137 42.1208 71.9238 42.4111 71.6497C33.8861 67.4771 27.5306 59.3451 26.0639 49.2791Z" fill="#EA5E22"/>
<path d="M28.7069 22.8578C29.4556 22.1573 31.1667 23.01 35.9486 19.5227C40.7306 16.0354 41.1125 9.06081 40.9903 7.52274C40.9903 7.52274 35.0319 7.38568 30.4639 13.2182C30.4639 13.2182 27.9889 15.8831 27.775 20.208C27.7444 20.8172 27.7597 21.4263 27.8972 22.0202C28.0347 22.6293 28.2792 23.2385 28.7069 22.8578Z" fill="#80AE2F"/>
<path d="M28.7986 22.6294C28.7833 21.6091 30.5708 20.939 31.2278 15.0456C31.8847 9.15222 26.9958 4.17253 25.7736 3.21313C25.7736 3.21313 21.6486 7.49232 22.8556 14.802C22.8556 14.802 23.1458 18.4263 26.2014 21.5177C26.6292 21.9441 27.0875 22.3553 27.6222 22.6598C28.1875 22.9644 28.8139 23.1928 28.7986 22.6294Z" fill="#8CBF40"/>
<path d="M15.3236 44.2843C15.0028 44.2691 14.4222 42.2894 13.5819 40.4924C13.2917 39.8985 12.4361 39.9442 12.2069 40.5686C10.0069 46.6447 9.96111 51.594 12.6806 58.066C17.2486 68.9239 29.3028 74.3757 41.2958 72.2285C41.6931 72.1523 42.0139 71.9848 42.2736 71.7564C28.7069 69.3351 17.5694 58.5838 15.3236 44.2843Z" fill="#E74922"/>
<path d="M96.7694 46.1725H88.1222V28.873C88.1222 27.472 87.618 26.269 86.6097 25.2487C85.6014 24.2284 84.3791 23.7106 82.943 23.7106C81.5375 23.7106 80.3305 24.2284 79.3069 25.2487C78.2833 26.269 77.7639 27.4872 77.7639 28.873V46.1573H69.0708V28.873C69.0708 25.1116 70.4305 21.868 73.1805 19.1573C75.9152 16.4466 79.1694 15.0913 82.9583 15.0913C86.7625 15.0913 90.0319 16.4314 92.7361 19.1268C95.4402 21.8223 96.7847 25.0659 96.7847 28.8578V46.1725H96.7694Z" fill="#EA5E22"/>
<path d="M104.21 19.66C107.25 16.6295 110.932 15.1067 115.225 15.1067C119.518 15.1067 123.2 16.6295 126.24 19.66C129.281 22.6904 130.808 26.3605 130.808 30.6397V46.1727H122.161V30.6397C122.161 28.7209 121.489 27.0915 120.129 25.7514C118.785 24.4113 117.135 23.726 115.225 23.726C113.331 23.726 111.711 24.396 110.367 25.7514C109.022 27.0915 108.335 28.7361 108.335 30.6397C108.335 32.5585 109.007 34.1879 110.367 35.528C111.726 36.8681 113.346 37.5534 115.225 37.5534C116.951 37.5534 118.449 37.0052 119.717 35.8935V45.5331C118.189 45.9595 116.692 46.1727 115.225 46.1727C110.932 46.1727 107.25 44.6498 104.21 41.6194C101.169 38.5889 99.6417 34.9189 99.6417 30.6397C99.6417 26.3605 101.169 22.6904 104.21 19.66Z" fill="#EA5E22"/>
<path d="M134.521 30.6397C134.521 26.3605 136.033 22.6904 139.058 19.66C142.083 16.6295 145.75 15.1067 150.043 15.1067V23.726C148.118 23.726 146.499 24.396 145.154 25.7514C143.825 27.0915 143.153 28.7361 143.153 30.6397V46.1727H134.506V30.6397H134.521Z" fill="#EA5E22"/>
<path d="M155.696 19.66C158.736 16.6295 162.418 15.1067 166.711 15.1067C171.004 15.1067 174.686 16.6295 177.726 19.66C180.767 22.6904 182.294 26.3605 182.294 30.6397V46.1727H173.647V30.6397C173.647 28.7209 172.975 27.0915 171.615 25.7514C170.271 24.4113 168.621 23.726 166.711 23.726C164.817 23.726 163.197 24.396 161.853 25.7514C160.508 27.0915 159.821 28.7361 159.821 30.6397C159.821 32.5585 160.493 34.1879 161.853 35.528C163.212 36.8681 164.832 37.5534 166.711 37.5534C168.437 37.5534 169.935 37.0052 171.203 35.8935V45.5331C169.675 45.9595 168.178 46.1727 166.711 46.1727C162.418 46.1727 158.736 44.6498 155.696 41.6194C152.656 38.5889 151.128 34.9189 151.128 30.6397C151.128 26.3605 152.656 22.6904 155.696 19.66Z" fill="#EA5E22"/>
<path d="M213.706 46.1725H205.058V28.873C205.058 27.472 204.554 26.269 203.546 25.2487C202.537 24.2284 201.315 23.7106 199.879 23.7106C198.474 23.7106 197.267 24.2284 196.243 25.2487C195.219 26.269 194.7 27.4872 194.7 28.873V46.1573H186.007V28.873C186.007 25.1116 187.367 21.868 190.117 19.1573C192.851 16.4466 196.106 15.0913 199.894 15.0913C203.699 15.0913 206.968 16.4314 209.672 19.1268C212.376 21.8223 213.721 25.0659 213.721 28.8578V46.1725H213.706Z" fill="#EA5E22"/>
<path d="M229.396 15.1066V47.2386C229.396 50.3299 228.296 52.9645 226.096 55.1574C223.896 57.3502 221.253 58.4467 218.151 58.4467H217.372V49.8274H218.151C218.869 49.8274 219.481 49.5685 219.985 49.066C220.489 48.5634 220.749 47.9543 220.749 47.2386V15.1066H229.396ZM222.337 7.62944C223.101 6.86802 224.018 6.4873 225.103 6.4873C226.172 6.4873 227.104 6.86802 227.868 7.62944C228.632 8.39086 229.014 9.30456 229.014 10.3858C229.014 11.467 228.632 12.3807 227.868 13.1421C227.104 13.9035 226.187 14.2843 225.103 14.2843C224.033 14.2843 223.101 13.9035 222.337 13.1421C221.574 12.3807 221.192 11.467 221.192 10.3858C221.192 9.30456 221.558 8.39086 222.337 7.62944Z" fill="#EA5E22"/>
<path d="M237.325 19.66C240.365 16.6295 244.047 15.1067 248.34 15.1067C252.633 15.1067 256.315 16.6295 259.356 19.66C262.396 22.6904 263.924 26.3605 263.924 30.6397V46.1727H255.276V30.6397C255.276 28.7209 254.604 27.0915 253.244 25.7514C251.9 24.4113 250.25 23.726 248.34 23.726C246.446 23.726 244.826 24.396 243.482 25.7514C242.137 27.0915 241.45 28.7361 241.45 30.6397C241.45 32.5585 242.122 34.1879 243.482 35.528C244.842 36.8681 246.461 37.5534 248.34 37.5534C250.067 37.5534 251.564 37.0052 252.832 35.8935V45.5331C251.304 45.9595 249.807 46.1727 248.34 46.1727C244.047 46.1727 240.365 44.6498 237.325 41.6194C234.285 38.5889 232.757 34.9189 232.757 30.6397C232.757 26.3605 234.285 22.6904 237.325 19.66Z" fill="#EA5E22"/>
<path d="M70.5833 50.3604C70.7972 50.3604 70.9958 50.4365 71.1486 50.5888C71.3014 50.7411 71.3778 50.939 71.3778 51.1522C71.3778 51.3807 71.3014 51.5786 71.1486 51.7309C70.9958 51.8832 70.7972 51.9593 70.5833 51.9593C70.3542 51.9593 70.1556 51.8832 70.0028 51.7309C69.85 51.5786 69.7736 51.3959 69.7736 51.1522C69.7736 50.939 69.85 50.7411 70.0028 50.5888C70.1556 50.4365 70.3389 50.3604 70.5833 50.3604ZM69.9417 53.5431H71.225V65.1319H69.9417V53.5431Z" fill="#ED7921"/>
<path d="M77.4125 53.5432C78.65 53.5432 79.7194 53.9848 80.6056 54.8681C81.4917 55.7513 81.9347 56.8173 81.9347 58.0508V65.132H80.6667V58.0508C80.6667 57.1676 80.3458 56.4062 79.7042 55.7818C79.0625 55.1574 78.2986 54.8376 77.4125 54.8376C76.5264 54.8376 75.7625 55.1574 75.1208 55.7818C74.4792 56.4062 74.1583 57.1676 74.1583 58.0508V65.132H72.875V58.0508C72.875 56.8173 73.3181 55.7513 74.2042 54.8681C75.0903 53.9848 76.1597 53.5432 77.4125 53.5432Z" fill="#ED7921"/>
<path d="M84.5931 61.9035V54.8223H82.9736V53.5279H84.5931V50.3147H85.8917V53.5279H87.5111V54.8223H85.8917V61.9035C85.8917 62.4365 86.075 62.8934 86.457 63.2589C86.8389 63.6396 87.282 63.8223 87.8167 63.8223H88.4431V65.1167H87.8167C86.9153 65.1167 86.1514 64.7969 85.525 64.1726C84.8986 63.5482 84.5931 62.7868 84.5931 61.9035Z" fill="#ED7921"/>
<path d="M94.6458 65.1319C93.0417 65.1319 91.6667 64.5684 90.5361 63.4263C89.4056 62.2994 88.825 60.9288 88.825 59.3299C88.825 57.7309 89.3903 56.3603 90.5361 55.2334C91.6667 54.1065 93.0417 53.5278 94.6458 53.5278C96.25 53.5278 97.625 54.0913 98.7556 55.2334C99.8861 56.3603 100.467 57.7309 100.467 59.3299C100.467 59.4669 100.467 59.5583 100.451 59.6344H90.1542C90.2306 60.807 90.7042 61.7969 91.5597 62.6192C92.4306 63.4263 93.4542 63.8375 94.6458 63.8375C95.3792 63.8375 96.0667 63.67 96.7083 63.3349C97.35 62.9999 97.8847 62.5431 98.3125 61.9644H99.825C99.3361 62.9238 98.6333 63.6852 97.7014 64.2639C96.7695 64.8426 95.7611 65.1319 94.6458 65.1319ZM90.2458 58.3552H99.0611C98.8472 57.3349 98.3125 56.4974 97.4875 55.8273C96.6625 55.1573 95.7153 54.8222 94.6458 54.8222C93.5764 54.8222 92.6292 55.1573 91.8042 55.8273C90.9792 56.4974 90.4597 57.3349 90.2458 58.3552Z" fill="#ED7921"/>
<path d="M101.765 58.675C101.765 57.2588 102.269 56.0405 103.278 55.0354C104.286 54.0304 105.508 53.5278 106.944 53.5278H107.479V54.8222H106.944C105.875 54.8222 104.958 55.203 104.194 55.9492C103.431 56.6953 103.049 57.609 103.049 58.675V65.1167H101.75V58.675H101.765Z" fill="#ED7921"/>
<path d="M113.3 53.5432C114.538 53.5432 115.607 53.9848 116.493 54.8681C117.379 55.7513 117.822 56.8173 117.822 58.0508V65.132H116.554V58.0508C116.554 57.1676 116.233 56.4062 115.592 55.7818C114.95 55.1574 114.186 54.8376 113.3 54.8376C112.414 54.8376 111.65 55.1574 111.008 55.7818C110.367 56.4062 110.046 57.1676 110.046 58.0508V65.132H108.747V58.0508C108.747 56.8173 109.19 55.7513 110.076 54.8681C110.978 53.9848 112.047 53.5432 113.3 53.5432Z" fill="#ED7921"/>
<path d="M124.911 65.1319C123.307 65.1319 121.932 64.5684 120.801 63.4263C119.671 62.2994 119.09 60.9288 119.09 59.3299C119.09 57.7309 119.656 56.3603 120.801 55.2334C121.932 54.1065 123.307 53.5278 124.911 53.5278C126.515 53.5278 127.89 54.0913 129.021 55.2334C130.151 56.3603 130.732 57.7309 130.732 59.3299C130.732 59.4669 130.732 59.5583 130.717 59.6344H120.419C120.496 60.807 120.969 61.7969 121.825 62.6192C122.696 63.4263 123.719 63.8375 124.911 63.8375C125.644 63.8375 126.332 63.67 126.974 63.3349C127.615 62.9999 128.15 62.5431 128.578 61.9644H130.09C129.601 62.9238 128.899 63.6852 127.967 64.2639C127.035 64.8426 126.011 65.1319 124.911 65.1319ZM120.496 58.3552H129.311C129.097 57.3349 128.562 56.4974 127.737 55.8273C126.928 55.1573 125.981 54.8222 124.911 54.8222C123.842 54.8222 122.894 55.1573 122.069 55.8273C121.229 56.4974 120.71 57.3349 120.496 58.3552Z" fill="#ED7921"/>
<path d="M132.779 61.9035V54.8223H131.16V53.5279H132.779V50.3147H134.078V53.5279H135.697V54.8223H134.078V61.9035C134.078 62.4365 134.261 62.8934 134.643 63.2589C135.025 63.6396 135.468 63.8223 136.003 63.8223H136.629V65.1167H136.003C135.101 65.1167 134.338 64.7969 133.711 64.1726C133.085 63.5482 132.779 62.7868 132.779 61.9035Z" fill="#ED7921"/>
</svg>