<svg xmlns="http://www.w3.org/2000/svg" viewBox="0 96 960 960" fill="currentColor">
<path d="M172 669q-7.675 0-12.837-5.357Q154 658.286 154 651.281 154 644 159 639q5-5 12-5h253q6.7 0 11.85 5.173 5.15 5.172 5.15 12.178 0 7.281-5.026 12.465Q430.949 669 425 669H172zm0 150q-7.675 0-12.837-5.357Q154 808.286 154 801.281 154 794 159 789q5-5 12-5h253q6.7 0 11.85 5.173 5.15 5.172 5.15 12.178 0 7.281-5.026 12.465Q430.949 819 425 819H172zm0-301q-7.675 0-12.837-5.357Q154 507.286 154 500.281 154 493 159 488q5-5 12-5h253q6.7 0 11.85 5.173 5.15 5.172 5.15 12.178 0 7.281-5.026 12.465Q430.949 518 425 518H172zm0-150q-7.675 0-12.837-5.357Q154 357.286 154 350.281 154 343 159 338q5-5 12-5h253q6.7 0 11.85 5.173 5.15 5.172 5.15 12.178 0 7.281-5.026 12.465Q430.949 368 425 368H172zm432 0v416-416zm-2 451q-13.925 0-23.463-9.537Q569 799.925 569 786V366q0-13.925 9.537-23.463Q588.075 333 602 333h171q13.925 0 23.463 9.537Q806 352.075 806 366v420q0 13.925-9.537 23.463Q786.925 819 773 819H602zm2-451v416h167V368H604z"/>
</svg>
