<svg xmlns="http://www.w3.org/2000/svg" viewBox="0 96 960 960" fill="currentColor">
<path d="M324.154 759.462q-27.956 0-48.286-19.982-20.33-19.983-20.33-48.403v-243q0-8.602 6.642-14.994 6.643-6.391 15.616-6.391 8.973 0 15.242 6.391 6.269 6.392 6.269 14.994v243q0 9.231 7.693 16.923 7.692 7.693 16.923 7.693h325.231q9.027 0 15.706 6.733t6.679 15.84q0 8.682-6.679 14.939t-15.706 6.257h-325zM469.23 614.154q-27.782 0-48.083-19.982t-20.301-48.402V314.615q0-27.783 20.301-48.084 20.301-20.301 48.083-20.301h313.155q27.783 0 48.084 20.301 20.301 20.301 20.301 48.084V545.77q0 28.42-20.301 48.402t-48.084 19.982H469.23zm0-43.769h313.155q9.231 0 16.923-7.692Q807 555 807 545.77V349H444.615v196.77q0 9.23 7.692 16.923 7.693 7.692 16.923 7.692zM178.615 904.77q-27.783 0-48.084-19.983-20.301-19.982-20.301-48.402V580.384q0-8.602 6.643-14.993Q123.515 559 132.488 559q8.973 0 15.243 6.391Q154 571.782 154 580.384v256.001q0 9.231 7.692 16.923Q169.384 861 178.615 861h338.001q9.027 0 15.706 6.733Q539 874.466 539 883.574q0 8.682-6.678 14.939-6.679 6.257-15.706 6.257H178.615z"/>
</svg>
