<svg xmlns="http://www.w3.org/2000/svg" viewBox="0 96 960 960" fill="currentColor">
<path d="M498 558h311q-5-126-95.5-217T498 247v311zm-35 347V247q-130 6-221 101.701Q151 444.403 151 576t91 227.299Q333 899 463 905zm35 0q125-5 214-95t97-217H498v312zm-18-329zm.336 364q-75.652 0-142.27-28.622-66.617-28.622-115.896-77.688-49.278-49.066-77.724-115.576Q116 651.603 116 575.982q0-75.878 28.47-142.002 28.471-66.123 77.765-115.731 49.294-49.608 115.572-77.928Q404.085 212 479.441 212 556 212 622 240.5t115.5 78q49.5 49.5 78 115.379T844 576.316q0 75.684-28.286 141.966-28.286 66.282-77.834 115.78-49.549 49.497-115.593 77.718Q556.244 940 480.336 940z"/>
</svg>
