<svg xmlns="http://www.w3.org/2000/svg" viewBox="0 96 960 960" fill="currentColor">
<path d="M460.005 172q76.2 0 129.597 52.656Q643 277.312 643 354q0 59.34-32.5 101.67T532.442 514H521v-27q39-16 63-51.5t24-81.5q0-61.217-43.35-104.109Q521.3 207 460 207q-61 0-104.5 42.891Q312 292.783 312 354q0 46.272 24 80.636T399 485v40q-55-18-88.5-65.5T277 354q0-76.688 54-129.344Q385 172 460.005 172zM422 940q-8 0-16-3t-15-10L236 774q-8-8-9.5-23.5T233 724q8-12 22.5-15t27.5 1l116 22V354q0-24.92 17.676-42.96t43-18.04Q485 293 503 311.04q18 18.04 18 42.96v204h39q3.357 0 7.179 2 3.821 2 7.821 3l130 63q27 14 39 43.5t8 61.5l-31 176q-3 15-13.82 24T680 940H422zm-2-35h264.714L716 734q3-21-3.5-44T684 656l-131.275-66.281h-66.959V353.825q0-11.622-7.143-18.723-7.142-7.102-18.83-7.102-12.793 0-19.293 7.1-6.5 7.101-6.5 18.72V774l-167-34-7 7 160 158zm265 0H420h265z"/>
</svg>
